<svg id="Capa_1" enable-background="new 0 0 512 512" height="512" viewBox="0 0 512 512" width="512" xmlns="http://www.w3.org/2000/svg"><g><path d="m36 181c8.284 0 15-6.716 15-15v-82.027l202.317 36.785c1.774.323 3.592.323 5.367 0l220-40c16.422-2.986 16.422-26.53 0-29.516l-220-40c-1.774-.323-3.592-.323-5.367 0l-220 40c-7.799 1.418-11.886 7.472-12.279 13.758h-.038v.994.013 99.993c0 8.284 6.716 15 15 15z"/><path d="m497 471h-15v-10h-407c-8.284 0-15-6.716-15-15s6.716-15 15-15h407v-10h15c8.284 0 15-6.716 15-15s-6.716-15-15-15h-467c-16.569 0-30 13.431-30 30v50c0 16.569 13.431 30 30 30h467c8.284 0 15-6.716 15-15s-6.716-15-15-15z"/><path d="m264.05 150.275c-2.646.481-5.356.726-8.05.726s-5.404-.245-8.054-.727l-136.946-24.9v95.626h290v-95.626z"/><path d="m116 291h325v-10h15c8.284 0 15-6.716 15-15s-6.716-15-15-15h-385c-16.569 0-30 13.431-30 30v50c0 16.569 13.431 30 30 30h385c8.284 0 15-6.716 15-15s-6.716-15-15-15h-15v-10h-325c-8.284 0-15-6.716-15-15s6.716-15 15-15z"/></g></svg>