<?xml version="1.0"?>
<svg xmlns="http://www.w3.org/2000/svg" viewBox="0 0 64 64" width="512" height="512"><g id="solid"><path d="M40,11v3a1,1,0,0,1-1,1H34a1,1,0,0,1-1-1V11H21.414l11,11H54.586l-11-11Z"/><rect x="38" y="30" width="3" height="3"/><rect x="17" y="30" width="5" height="11"/><path d="M31,41V23.414L19.029,11.443,8,23.391v2.667A3.485,3.485,0,0,1,9,28.5v8.688a3.443,3.443,0,0,1,2.017-.745,3.5,3.5,0,0,1,2.731,1.179L15,39.053V29a1,1,0,0,1,1-1h7a1,1,0,0,1,1,1V41Z"/><path d="M47.3,41l2.956-3.378a3.519,3.519,0,0,1,2.731-1.179A3.443,3.443,0,0,1,55,37.188V28.5a3.485,3.485,0,0,1,1-2.442V24H33V41ZM46,29a1,1,0,0,1,1-1h5a1,1,0,0,1,1,1v5a1,1,0,0,1-1,1H47a1,1,0,0,1-1-1ZM36,29a1,1,0,0,1,1-1h5a1,1,0,0,1,1,1v5a1,1,0,0,1-1,1H37a1,1,0,0,1-1-1Z"/><rect x="48" y="30" width="3" height="3"/><path d="M58.5,27A1.5,1.5,0,0,0,57,28.5V40a.994.994,0,0,1-.241.65L55.5,42.126l-.017.02-4.719,5.5a1,1,0,0,1-1.518-1.3l4.729-5.519a1.455,1.455,0,0,0-1.062-2.389,1.4,1.4,0,0,0-1.15.5l-5.005,5.72a1.071,1.071,0,0,1-.152.142A9.043,9.043,0,0,0,43,52v5h9.382l6.879-13.758A7.044,7.044,0,0,0,60,40.111V28.5A1.5,1.5,0,0,0,58.5,27Z"/><path d="M11.618,57H21V52a9.043,9.043,0,0,0-3.6-7.2,1.071,1.071,0,0,1-.152-.142l-5-5.72a1.456,1.456,0,0,0-2.212,1.894l4.729,5.518a1,1,0,0,1-1.518,1.3l-4.718-5.5-.018-.02L7.241,40.65A.994.994,0,0,1,7,40V28.5a1.5,1.5,0,0,0-3,0V40.111a7.044,7.044,0,0,0,.739,3.131Z"/><rect x="35" y="7" width="3" height="6"/></g></svg>
